<svg width="9" height="13" viewBox="0 0 9 13" fill="none" xmlns="http://www.w3.org/2000/svg">
<path d="M8.62032 0.314675C8.50099 0.214965 8.35903 0.135824 8.20261 0.081815C8.04619 0.0278065 7.87842 0 7.70897 0C7.53952 0 7.37175 0.0278065 7.21533 0.081815C7.05891 0.135824 6.91695 0.214965 6.79762 0.314675L0.379683 5.63375C0.259374 5.73265 0.163883 5.85031 0.0987168 5.97994C0.0335507 6.10958 0 6.24862 0 6.38906C0 6.5295 0.0335507 6.66854 0.0987168 6.79818C0.163883 6.92781 0.259374 7.04547 0.379683 7.14437L6.79762 12.4634C6.91695 12.5632 7.05891 12.6423 7.21533 12.6963C7.37175 12.7503 7.53952 12.7781 7.70897 12.7781C7.87842 12.7781 8.04619 12.7503 8.20261 12.6963C8.35903 12.6423 8.50099 12.5632 8.62032 12.4634C8.74063 12.3645 8.83612 12.2469 8.90128 12.1173C8.96645 11.9876 9 11.8486 9 11.7081C9 11.5677 8.96645 11.4287 8.90128 11.299C8.83612 11.1694 8.74063 11.0517 8.62032 10.9528L3.10089 6.38906L8.62032 1.82529C8.74063 1.7264 8.83612 1.60874 8.90128 1.4791C8.96645 1.34947 9 1.21042 9 1.06998C9 0.929547 8.96645 0.790501 8.90128 0.660865C8.83612 0.531229 8.74063 0.41357 8.62032 0.314675Z" fill="#FFF8E9"/>
</svg>
