<svg width="16" height="18" viewBox="0 0 16 18" fill="none" xmlns="http://www.w3.org/2000/svg">
<path d="M1.55447 11.0908C1.17121 10.4592 0.96875 9.73651 0.96875 8.99993C0.96875 8.26335 1.17121 7.54063 1.55447 6.9091C1.67225 6.71466 1.82986 6.54675 2.01716 6.41615C2.20446 6.28555 2.41731 6.19515 2.64204 6.15077L4.49628 5.78352C4.60686 5.76186 4.70659 5.70336 4.77885 5.61777L7.0438 2.92785C8.33837 1.38952 8.98675 0.621432 9.56394 0.828349C10.1411 1.03527 10.1433 2.03627 10.1433 4.03827V13.9638C10.1433 15.9647 10.1433 16.9646 9.56504 17.1726C8.98785 17.3784 8.33947 16.6104 7.0449 15.0731L4.77666 12.3821C4.70468 12.2967 4.60537 12.2382 4.49518 12.2163L2.64094 11.8491C2.41622 11.8047 2.20337 11.7143 2.01606 11.5837C1.82876 11.4531 1.67225 11.2852 1.55447 11.0908Z" fill="#9CDB8D"/>
<path d="M12.9199 5.16919C13.9418 6.17993 14.5184 7.54924 14.5239 8.97866C14.5294 10.4081 13.9635 11.7817 12.9495 12.8002" stroke="#9CDB8D" stroke-width="2" stroke-linecap="round"/>
</svg>
